# xmcd CD database file
#
# Track frame offsets:
#	150
#	13300
#	25346
#	37452
#	50729
#	65354
#	88081
#	98476
#	127117
#	152840
#	165440
#	178627
#	205388
#	218448
#	232090
#	245804
#	262121
#	275641
#	287359
#	306794
#
# Disc length: 4386 seconds
#
# Revision: 0
# Processed by: cddbd v1.5.2PL0 Copyright (c) Steve Scherf et al.
# Submitted via: CDex 2.01
#
DISCID=2e112014
DTITLE=Various Artist - Smooth Jazz [CD2of2)
DYEAR=1900
DGENRE=Jazz
TTITLE0=Dave Brubeck - Take Five
TTITLE1=Louis Armstrong - Jeepers Creepers
TTITLE2=Art Pepper - These Foolish Things (Remind Me Of You)
TTITLE3=Billie Holiday - God Bless The Child
TTITLE4=George Shearing Quartet - September In The Rain
TTITLE5=Ben Webster - Satin Doll
TTITLE6=Mel Torme - Sophisticated Lady
TTITLE7=Cannonball Adderley - Willow Weep For Me
TTITLE8=Jon Hendricks and Friends - In Summer
TTITLE9=Erroll Garner - Misty
TTITLE10=Ella Fitzgerald - I'm Just A Lucky So-And-So
TTITLE11=Herbie Mann - Yardbird Suite
TTITLE12=Mildred Bailey - Born To Be Blue
TTITLE13=Oscar Peterson Trio - I Get A Kick Out Of You
TTITLE14=Nat King Cole - Just You Just Me
TTITLE15=Anita O'Day - My Funny Valentine
TTITLE16=Joe Williams - Detour Ahead
TTITLE17=Django Reinhardt and Quintet Of THCOF with Stephane Grappelli - Dinah
TTITLE18=June Christy - Something Cool
TTITLE19=Hank Mobley - Blues Number Two
EXTD=
EXTT0=
EXTT1=
EXTT2=
EXTT3=
EXTT4=
EXTT5=
EXTT6=
EXTT7=
EXTT8=
EXTT9=
EXTT10=
EXTT11=
EXTT12=
EXTT13=
EXTT14=
EXTT15=
EXTT16=
EXTT17=
EXTT18=
EXTT19=
PLAYORDER=
